<svg xmlns="http://www.w3.org/2000/svg" width="22.97" height="26.25" viewBox="0 0 22.97 26.25">
  <path id="arrow-left-right" d="M1,18.866a.82.82,0,0,0,.82.82H21.167L16,24.847a.821.821,0,0,0,1.161,1.161l6.562-6.562a.82.82,0,0,0,0-1.161l-6.562-6.562A.821.821,0,1,0,16,12.885l5.163,5.161H1.821A.82.82,0,0,0,1,18.866ZM23.968,7.383a.82.82,0,0,1-.82.82H3.8l5.163,5.161A.821.821,0,1,1,7.8,14.525L1.24,7.963a.82.82,0,0,1,0-1.161L7.8.24A.821.821,0,1,1,8.964,1.4L3.8,6.562H23.147A.82.82,0,0,1,23.968,7.383Z" transform="translate(-0.999 0.001)" fill-rule="evenodd"/>
</svg>
