<svg xmlns="http://www.w3.org/2000/svg" width="26.25" height="26.25" viewBox="0 0 26.25 26.25">
  <path id="Path_604" data-name="Path 604" d="M26.25-21.562V-.937a2.712,2.712,0,0,1-.82,1.992,2.712,2.712,0,0,1-1.992.82H2.813A2.712,2.712,0,0,1,.82,1.055,2.712,2.712,0,0,1,0-.937V-21.562a2.712,2.712,0,0,1,.82-1.992,2.712,2.712,0,0,1,1.992-.82H23.438a2.712,2.712,0,0,1,1.992.82A2.712,2.712,0,0,1,26.25-21.562ZM17.813-8.906a3.145,3.145,0,0,0-2.227.879L11.6-10.43a2.974,2.974,0,0,0,.117-.82,2.974,2.974,0,0,0-.117-.82l3.984-2.4a3.145,3.145,0,0,0,2.227.879,3.158,3.158,0,0,0,2.314-.967,3.158,3.158,0,0,0,.967-2.314,3.158,3.158,0,0,0-.967-2.314,3.158,3.158,0,0,0-2.314-.967,3.158,3.158,0,0,0-2.314.967,3.158,3.158,0,0,0-.967,2.314,2.974,2.974,0,0,0,.117.82l-3.984,2.4a3.145,3.145,0,0,0-2.227-.879,3.158,3.158,0,0,0-2.314.967,3.158,3.158,0,0,0-.967,2.314,3.158,3.158,0,0,0,.967,2.314,3.158,3.158,0,0,0,2.314.967,3.145,3.145,0,0,0,2.227-.879l3.984,2.4a2.974,2.974,0,0,0-.117.82A3.158,3.158,0,0,0,15.5-3.311a3.158,3.158,0,0,0,2.314.967,3.158,3.158,0,0,0,2.314-.967,3.158,3.158,0,0,0,.967-2.314,3.158,3.158,0,0,0-.967-2.314A3.158,3.158,0,0,0,17.813-8.906Z" transform="translate(0 24.375)" fill="#e30613"/>
</svg>
