<svg xmlns="http://www.w3.org/2000/svg" width="13.125" height="14" viewBox="0 0 13.125 14">
  <path id="Path_631" data-name="Path 631" d="M7.438-4.375H5.688a2.269,2.269,0,0,0-1.559.629A2.269,2.269,0,0,0,3.5-2.187a.421.421,0,0,0,.438.438.421.421,0,0,0,.438-.437,1.427,1.427,0,0,1,.383-.93,1.427,1.427,0,0,1,.93-.383h1.75a1.427,1.427,0,0,1,.93.383,1.427,1.427,0,0,1,.383.93.421.421,0,0,0,.438.438.421.421,0,0,0,.438-.437A2.269,2.269,0,0,0,9-3.746,2.269,2.269,0,0,0,7.438-4.375ZM13.563-7h-.437v2.625h.438A.421.421,0,0,0,14-4.812v-1.75A.421.421,0,0,0,13.563-7Zm-7,1.75a1.767,1.767,0,0,0,1.23-.52A1.767,1.767,0,0,0,8.313-7a1.767,1.767,0,0,0-.52-1.23,1.767,1.767,0,0,0-1.23-.52,1.767,1.767,0,0,0-1.23.52A1.767,1.767,0,0,0,4.813-7a1.767,1.767,0,0,0,.52,1.23A1.767,1.767,0,0,0,6.563-5.25Zm0-2.625a.852.852,0,0,1,.629.246A.852.852,0,0,1,7.438-7a.852.852,0,0,1-.246.629.852.852,0,0,1-.629.246.852.852,0,0,1-.629-.246A.852.852,0,0,1,5.688-7a.852.852,0,0,1,.246-.629A.852.852,0,0,1,6.563-7.875Zm7,4.375h-.437V-.875h.438A.421.421,0,0,0,14-1.312v-1.75A.421.421,0,0,0,13.563-3.5Zm0-7h-.437v2.625h.438A.421.421,0,0,0,14-8.312v-1.75A.421.421,0,0,0,13.563-10.5ZM10.5-12.25H2.625a1.767,1.767,0,0,0-1.23.52,1.767,1.767,0,0,0-.52,1.23V0a1.767,1.767,0,0,0,.52,1.23,1.767,1.767,0,0,0,1.23.52H10.5a1.767,1.767,0,0,0,1.23-.52A1.767,1.767,0,0,0,12.25,0V-10.5a1.767,1.767,0,0,0-.52-1.23A1.767,1.767,0,0,0,10.5-12.25ZM11.375,0a.852.852,0,0,1-.246.629A.852.852,0,0,1,10.5.875H2.625A.852.852,0,0,1,2,.629.852.852,0,0,1,1.75,0V-10.5A.852.852,0,0,1,2-11.129a.852.852,0,0,1,.629-.246H10.5a.852.852,0,0,1,.629.246.852.852,0,0,1,.246.629Z" transform="translate(-0.875 12.25)"/>
</svg>
