<svg xmlns="http://www.w3.org/2000/svg" width="15.745" height="17.993" viewBox="0 0 15.745 17.993">
  <path id="arrow-left-right" d="M1,12.932a.562.562,0,0,0,.562.562H14.824l-3.539,3.538a.563.563,0,1,0,.8.8l4.5-4.5a.562.562,0,0,0,0-.8l-4.5-4.5a.563.563,0,0,0-.8.8l3.539,3.538H1.562A.562.562,0,0,0,1,12.932ZM16.743,5.06a.562.562,0,0,1-.562.562H2.92L6.458,9.16a.563.563,0,1,1-.8.8l-4.5-4.5a.562.562,0,0,1,0-.8l4.5-4.5a.563.563,0,1,1,.8.8L2.92,4.5H16.181A.562.562,0,0,1,16.743,5.06Z" transform="translate(-0.999 0.001)" fill="#7e7e7e" fill-rule="evenodd"/>
</svg>
