<svg xmlns="http://www.w3.org/2000/svg" width="22.412" height="20" viewBox="0 0 22.412 20">
  <path id="Path_602" data-name="Path 602" d="M3.75-17.5a.948.948,0,0,1,.938.781l.039.469H21.172a1.257,1.257,0,0,1,.977.508,1.335,1.335,0,0,1,.234,1.094l-2.109,7.5a1.254,1.254,0,0,1-1.211.9H6.68l.352,1.875H19.063A.934.934,0,0,1,20-3.437a.934.934,0,0,1-.937.938H6.211a.917.917,0,0,1-.9-.742L2.969-15.625H.938A.934.934,0,0,1,0-16.562.934.934,0,0,1,.938-17.5ZM18.594-8.125l1.758-6.25H5.117l1.211,6.25ZM5,.625A2.038,2.038,0,0,1,5.547-.7,2.038,2.038,0,0,1,6.875-1.25,2.038,2.038,0,0,1,8.2-.7,2.038,2.038,0,0,1,8.75.625,2.038,2.038,0,0,1,8.2,1.953,2.038,2.038,0,0,1,6.875,2.5a2.038,2.038,0,0,1-1.328-.547A2.038,2.038,0,0,1,5,.625Zm15,0a2.038,2.038,0,0,1-.547,1.328,1.886,1.886,0,0,1-2.656,0A2.038,2.038,0,0,1,16.25.625,2.038,2.038,0,0,1,16.8-.7a1.886,1.886,0,0,1,2.656,0A2.038,2.038,0,0,1,20,.625Z" transform="translate(0 17.5)"/>
</svg>
