<svg xmlns="http://www.w3.org/2000/svg" width="14" height="12.25" viewBox="0 0 14 12.25">
  <path id="Path_630" data-name="Path 630" d="M12.031-8.75H3.281a.654.654,0,0,0-.656.656.654.654,0,0,0,.656.656h8.75a.654.654,0,0,1,.656.656v5.688a.654.654,0,0,1-.656.656H2.406a.993.993,0,0,1-.766-.328.993.993,0,0,1-.328-.766V-8.969a.993.993,0,0,1,.328-.766.993.993,0,0,1,.766-.328H12.469a.654.654,0,0,0,.656-.656.654.654,0,0,0-.656-.656H2.406a2.4,2.4,0,0,0-1.7.711A2.4,2.4,0,0,0,0-8.969v7.438A2.4,2.4,0,0,0,.711.164a2.4,2.4,0,0,0,1.7.711h9.625A1.985,1.985,0,0,0,13.426.3,1.985,1.985,0,0,0,14-1.094V-6.781a1.985,1.985,0,0,0-.574-1.395A1.985,1.985,0,0,0,12.031-8.75Zm-.656,4.813a.852.852,0,0,0-.246-.629.852.852,0,0,0-.629-.246.852.852,0,0,0-.629.246.852.852,0,0,0-.246.629.852.852,0,0,0,.246.629.852.852,0,0,0,.629.246.852.852,0,0,0,.629-.246A.852.852,0,0,0,11.375-3.937Z" transform="translate(0 11.375)"/>
</svg>
