<svg xmlns="http://www.w3.org/2000/svg" width="16.872" height="18.871" viewBox="0 0 16.872 18.871">
  <g id="Group_1025" data-name="Group 1025" transform="translate(-1428 -496.007)">
    <path id="arrow-left-right" d="M1,12.932a.562.562,0,0,0,.562.562H14.824l-3.539,3.538a.563.563,0,1,0,.8.8l4.5-4.5a.562.562,0,0,0,0-.8l-4.5-4.5a.563.563,0,0,0-.8.8l3.539,3.538H1.562A.562.562,0,0,0,1,12.932ZM16.743,5.06a.562.562,0,0,1-.562.562H2.92L6.458,9.16a.563.563,0,1,1-.8.8l-4.5-4.5a.562.562,0,0,1,0-.8l4.5-4.5a.563.563,0,1,1,.8.8L2.92,4.5H16.181A.562.562,0,0,1,16.743,5.06Z" transform="translate(1428.128 496.007)" fill="#7e7e7e" fill-rule="evenodd"/>
    <g id="Group_1023" data-name="Group 1023">
      <rect id="Rectangle_1473" data-name="Rectangle 1473" width="9" height="9" rx="1" transform="translate(1428 505.878)" fill="#a8c800"/>
      <path id="Path_611" data-name="Path 611" d="M3.359-5.359A.521.521,0,0,1,3.5-5a.521.521,0,0,1-.141.359l-4,4A.521.521,0,0,1-1-.5a.521.521,0,0,1-.359-.141l-2-2A.521.521,0,0,1-3.5-3a.521.521,0,0,1,.141-.359A.521.521,0,0,1-3-3.5a.521.521,0,0,1,.359.141L-1-1.7,2.641-5.359A.521.521,0,0,1,3-5.5.521.521,0,0,1,3.359-5.359Z" transform="translate(1432.5 513.378)" fill="#fff"/>
    </g>
  </g>
</svg>
