<svg xmlns="http://www.w3.org/2000/svg" width="22" height="22" viewBox="0 0 22 22">
  <path id="ic_shopping_cart_24px" d="M7.6,19.6a2.2,2.2,0,1,0,2.2,2.2A2.2,2.2,0,0,0,7.6,19.6ZM1,2V4.2H3.2l3.96,8.349-1.485,2.7A2.127,2.127,0,0,0,5.4,16.3a2.206,2.206,0,0,0,2.2,2.2H20.8V16.3H8.062a.272.272,0,0,1-.275-.275l.033-.132L8.81,14.1h8.195a2.19,2.19,0,0,0,1.925-1.133l3.938-7.139A1.075,1.075,0,0,0,23,5.3a1.1,1.1,0,0,0-1.1-1.1H5.631L4.6,2H1ZM18.6,19.6a2.2,2.2,0,1,0,2.2,2.2A2.2,2.2,0,0,0,18.6,19.6Z" transform="translate(-1 -2)"/>
</svg>
