<svg xmlns="http://www.w3.org/2000/svg" width="120.668" height="50.711" viewBox="0 0 120.668 50.711">
  <path id="Logo" d="M-1955.886-10291.729v-7.876h1.093v7.876Zm-8.788,0v-7.876h6.686v1.087h-5.733v2.309h5.6v.951h-5.6v3.529Zm-2.637,0v-7.876h1.091v7.876Zm-10.547,0v-1.086h6.142a4.224,4.224,0,0,0,1.364-.136,1.229,1.229,0,0,0,.411-.951,1.008,1.008,0,0,0-.137-.679c0-.272-.137-.272-.408-.408a2.7,2.7,0,0,0-1.093-.135h-3.687a3.063,3.063,0,0,1-1.227-.135c-.411-.137-.682-.137-.819-.409s-.274-.407-.411-.679a2.323,2.323,0,0,1-.135-.951,3.388,3.388,0,0,1,.272-1.357,1.4,1.4,0,0,1,.819-.678,3.429,3.429,0,0,1,1.366-.272h5.733v.95h-5.733a2.017,2.017,0,0,0-.956.137c-.137.135-.274.27-.411.406a1.017,1.017,0,0,0-.137.681c0,.407,0,.542.137.679,0,.136.137.27.411.27.137.137.545.137,1.091.137h3.276a5.129,5.129,0,0,1,1.638.271,2.441,2.441,0,0,1,.956.68,2.693,2.693,0,0,1,.274,1.221v.137a3.392,3.392,0,0,1-.274,1.359,1.4,1.4,0,0,1-.819.678,2.052,2.052,0,0,1-1.364.271Zm-7.681,0a5.085,5.085,0,0,1-1.638-.271,1.831,1.831,0,0,1-.956-.814,5.033,5.033,0,0,1-.274-1.629v-5.161h1.093v5.431a1.464,1.464,0,0,0,.137.816,1.927,1.927,0,0,0,.545.407,2.366,2.366,0,0,0,1.093.136h3.139c.411,0,.819,0,.956-.136.274,0,.408-.272.545-.407a1.714,1.714,0,0,0,.137-.816v-5.295h1.093v5.025a5.039,5.039,0,0,1-.274,1.629,1.832,1.832,0,0,1-.956.814,4.205,4.205,0,0,1-1.5.271Zm-10.547,0a3.832,3.832,0,0,1-1.229-.135,1.247,1.247,0,0,1-.956-.408c-.271-.137-.408-.543-.545-.814a3,3,0,0,1-.137-1.223v-2.308a4.162,4.162,0,0,1,.137-1.358,2.2,2.2,0,0,1,.545-.951,2.226,2.226,0,0,1,.956-.543,4.239,4.239,0,0,1,1.366-.136h3.139a2.963,2.963,0,0,1,1.638.272.861.861,0,0,1,.682.814,5.978,5.978,0,0,1,.274,1.766v2.309a4.156,4.156,0,0,1-.137,1.357,4.253,4.253,0,0,1-.548.814,1.544,1.544,0,0,1-.819.408,3.059,3.059,0,0,1-1.228.135Zm-1.5-6.246a2.543,2.543,0,0,0-.274,1.086v2.309a1.705,1.705,0,0,0,.137.814.7.7,0,0,0,.271.543.711.711,0,0,0,.548.272,2.03,2.03,0,0,0,.956.136h3.139c.545,0,.956,0,1.091-.136q.205,0,.41-.407a2.317,2.317,0,0,0,.137-1.086v-2.445a2.624,2.624,0,0,0-.137-1.086c0-.137-.137-.273-.41-.408a2.684,2.684,0,0,0-1.091-.135h-4.232A1.041,1.041,0,0,0-1997.586-10297.975Zm-7.077,6.246v-3.666l-3.958-4.21h1.366l3.139,3.4,3.276-3.4h1.364l-4.095,4.21v3.666Zm-16.286,0v-7.876h1.093v6.79h5.461v1.086Zm-2.3,0-.956-1.9h-5.051l-.956,1.9h-1.09l3.958-7.876h1.364l3.958,7.876Zm-5.461-2.852h3.96l-2.049-3.937Zm-16.857,2.717H-2074.1v-50.576h6.826v14.237h28.528v36.339Zm-21.7-6.916h21.7v-22.371h-21.7Zm54.506,4.336v-1.088h3.684v1.088Zm-11.272-12.455a6.113,6.113,0,0,1-3-.679,3.068,3.068,0,0,1-.682-.405v1.084h-2.865v-21.184h2.865v6.791a1.837,1.837,0,0,1,.545-.407,6.327,6.327,0,0,1,3.141-.681h5.459a8.25,8.25,0,0,1,2.731.408,3.834,3.834,0,0,1,1.91,1.357,5.681,5.681,0,0,1,1.229,1.9,6.522,6.522,0,0,1,.408,2.443h.137v3.259a6.033,6.033,0,0,1-1.638,4.48,6.557,6.557,0,0,1-4.777,1.63Zm-2.868-11.812a3.371,3.371,0,0,0-.956,2.58v2.986a3.374,3.374,0,0,0,.956,2.581,4,4,0,0,0,3,.95h4.506a5.283,5.283,0,0,0,3.276-.814,3.314,3.314,0,0,0,.956-2.717v-3.123c0-2.443-1.364-3.531-4.232-3.4h-4.506A3.992,3.992,0,0,0-2026.908-10318.711Zm36.745,11.809v-2.581h12.83a3.686,3.686,0,0,0,2.049-.546,1.469,1.469,0,0,0,.545-1.221v-.678a1.322,1.322,0,0,0-.545-1.223,3.108,3.108,0,0,0-1.775-.406h-8.19c-4.369,0-5.188-2.174-4.777-3.668v-.543a3.958,3.958,0,0,1,.545-2.172,3.3,3.3,0,0,1,1.775-1.5,7,7,0,0,1,3-.542h12.7v2.581h-12.969a3.127,3.127,0,0,0-1.773.405,1.1,1.1,0,0,0-.547,1.087v.543c0,.545.274,1.5,2.32,1.5h8.192c4.23,0,5.186,2.309,5.186,4.209v.68a4.012,4.012,0,0,1-.682,2.035,5.477,5.477,0,0,1-1.912,1.493,6.942,6.942,0,0,1-3,.546Zm-18.577-1.5a5.513,5.513,0,0,1-1.638-4.343v-3.8a6.732,6.732,0,0,1,.682-2.851,4.812,4.812,0,0,1,2.183-2.174,7.047,7.047,0,0,1,3.413-.814h5.87a6.573,6.573,0,0,1,4.777,1.628,5.427,5.427,0,0,1,1.638,3.94v2.714h-15.835v.952c0,2.443,1.23,3.53,3.55,3.53h6.689a3.218,3.218,0,0,0,2.183-.679,2.4,2.4,0,0,0,.684-1.086l.135-.271h2.867l-.137.543a3.543,3.543,0,0,1-.408,1.493,4.027,4.027,0,0,1-1.775,1.9,7.153,7.153,0,0,1-3.139.679s-6.826,0-6.963.137A7.16,7.16,0,0,1-2008.74-10308.4Zm2.728-11a3.21,3.21,0,0,0-1.09,1.221,2.723,2.723,0,0,0-.411,1.494h12.967a4.74,4.74,0,0,0-.408-1.494,2.4,2.4,0,0,0-1.093-1.221,3.4,3.4,0,0,0-1.775-.408h-6.415A3.781,3.781,0,0,0-2006.011-10319.4Zm43.3,12.359a5.474,5.474,0,0,1-3.958-1.493,5.984,5.984,0,0,1-1.5-4.347v-6.791h-1.775v-2.576h1.775v-2.854h3v2.854h10.647v2.576h-10.647v7.2a3.444,3.444,0,0,0,.682,2.171,2.958,2.958,0,0,0,1.912.68h2.731a5.461,5.461,0,0,0,2.457-.543,2.511,2.511,0,0,0,.956-1.224l.135-.269h2.868l-.274.541a10.779,10.779,0,0,1-1.09,2.173c-.819,1.223-2.594,1.9-5.051,1.9Z" transform="translate(2074.1 10342.439)" fill="#fff"/>
</svg>
