<svg xmlns="http://www.w3.org/2000/svg" width="14" height="10.5" viewBox="0 0 14 10.5">
  <path id="Path_625" data-name="Path 625" d="M12.25-10.5H1.75a1.767,1.767,0,0,0-1.23.52A1.767,1.767,0,0,0,0-8.75v7A1.767,1.767,0,0,0,.52-.52,1.767,1.767,0,0,0,1.75,0h10.5a1.767,1.767,0,0,0,1.23-.52A1.767,1.767,0,0,0,14-1.75v-7a1.767,1.767,0,0,0-.52-1.23A1.767,1.767,0,0,0,12.25-10.5Zm-10.5.875h10.5a.852.852,0,0,1,.629.246.852.852,0,0,1,.246.629v.984L7.793-3.773A1.269,1.269,0,0,1,7-3.5a1.269,1.269,0,0,1-.793-.273L.875-7.766V-8.75a.852.852,0,0,1,.246-.629A.852.852,0,0,1,1.75-9.625ZM13.125-1.75a.852.852,0,0,1-.246.629.852.852,0,0,1-.629.246H1.75a.852.852,0,0,1-.629-.246A.852.852,0,0,1,.875-1.75V-6.7L5.688-3.062A2.184,2.184,0,0,0,7-2.625a2.184,2.184,0,0,0,1.313-.437L13.125-6.7Z" transform="translate(0 10.5)"/>
</svg>
