<svg xmlns="http://www.w3.org/2000/svg" width="9.625" height="14" viewBox="0 0 9.625 14">
  <path id="Path_627" data-name="Path 627" d="M8.313-12.25H2.188a1.767,1.767,0,0,0-1.23.52,1.767,1.767,0,0,0-.52,1.23V0a1.767,1.767,0,0,0,.52,1.23,1.767,1.767,0,0,0,1.23.52H8.313a1.767,1.767,0,0,0,1.23-.52A1.767,1.767,0,0,0,10.063,0V-10.5a1.767,1.767,0,0,0-.52-1.23A1.767,1.767,0,0,0,8.313-12.25ZM8.75,0a.421.421,0,0,1-.437.438H2.188A.421.421,0,0,1,1.75,0V-10.5a.421.421,0,0,1,.438-.437H8.313a.421.421,0,0,1,.438.438ZM6.125-1.312H4.375a.421.421,0,0,0-.437.438.421.421,0,0,0,.438.438h1.75a.421.421,0,0,0,.438-.437A.421.421,0,0,0,6.125-1.312Z" transform="translate(-0.438 12.25)"/>
</svg>
