<svg xmlns="http://www.w3.org/2000/svg" width="15.75" height="12.25" viewBox="0 0 15.75 12.25">
  <path id="Path_628" data-name="Path 628" d="M12.688-8.312h-7a.421.421,0,0,0-.437.438.421.421,0,0,0,.438.438h7a.421.421,0,0,0,.438-.437A.421.421,0,0,0,12.688-8.312ZM3.5-8.531a.654.654,0,0,0-.656.656.654.654,0,0,0,.656.656.654.654,0,0,0,.656-.656A.654.654,0,0,0,3.5-8.531Zm0,2.625a.654.654,0,0,0-.656.656.654.654,0,0,0,.656.656.654.654,0,0,0,.656-.656A.654.654,0,0,0,3.5-5.906Zm9.188.219h-7a.421.421,0,0,0-.437.438.421.421,0,0,0,.438.438h7a.421.421,0,0,0,.438-.437A.421.421,0,0,0,12.688-5.687ZM3.5-3.281a.654.654,0,0,0-.656.656.654.654,0,0,0,.656.656.654.654,0,0,0,.656-.656A.654.654,0,0,0,3.5-3.281Zm9.188.219h-7a.421.421,0,0,0-.437.438.421.421,0,0,0,.438.438h7a.421.421,0,0,0,.438-.437A.421.421,0,0,0,12.688-3.062ZM14-11.375H1.75a1.767,1.767,0,0,0-1.23.52A1.767,1.767,0,0,0,0-9.625v8.75A1.767,1.767,0,0,0,.52.355a1.767,1.767,0,0,0,1.23.52H14a1.767,1.767,0,0,0,1.23-.52,1.767,1.767,0,0,0,.52-1.23v-8.75a1.767,1.767,0,0,0-.52-1.23A1.767,1.767,0,0,0,14-11.375Zm.875,10.5a.852.852,0,0,1-.246.629A.852.852,0,0,1,14,0H1.75a.852.852,0,0,1-.629-.246A.852.852,0,0,1,.875-.875v-8.75a.852.852,0,0,1,.246-.629A.852.852,0,0,1,1.75-10.5H14a.852.852,0,0,1,.629.246.852.852,0,0,1,.246.629Z" transform="translate(0 11.375)"/>
</svg>
