<svg xmlns="http://www.w3.org/2000/svg" width="109.625" height="97.444" viewBox="0 0 109.625 97.444">
  <path id="Path_622" data-name="Path 622" d="M24.361-89.753a5.7,5.7,0,0,1,1.713-4.187,6.633,6.633,0,0,1,4.377-1.9,6.633,6.633,0,0,1,4.377,1.9,5.7,5.7,0,0,1,1.713,4.187,5.928,5.928,0,0,1-1.713,4.377,5.928,5.928,0,0,1-4.377,1.713,5.928,5.928,0,0,1-4.377-1.713A5.928,5.928,0,0,1,24.361-89.753Zm6.09-3.045a3.086,3.086,0,0,0-3.045,3.045,2.932,2.932,0,0,0,3.045,3.045A2.932,2.932,0,0,0,33.5-89.753,3.086,3.086,0,0,0,30.451-92.8Zm54.813,3.045a5.928,5.928,0,0,1-1.713,4.377,5.928,5.928,0,0,1-4.377,1.713A5.928,5.928,0,0,1,74.8-85.375a5.928,5.928,0,0,1-1.713-4.377A5.7,5.7,0,0,1,74.8-93.94a6.633,6.633,0,0,1,4.377-1.9,6.633,6.633,0,0,1,4.377,1.9A5.7,5.7,0,0,1,85.264-89.753Zm-6.09,3.045a2.932,2.932,0,0,0,3.045-3.045A3.086,3.086,0,0,0,79.174-92.8a3.086,3.086,0,0,0-3.045,3.045A2.932,2.932,0,0,0,79.174-86.708ZM63.948-142.091a1.729,1.729,0,0,1,.761-2.094,1.531,1.531,0,0,1,2.094.571l19.413,35.78H108.1a1.637,1.637,0,0,1,1.523,1.523,1.637,1.637,0,0,1-1.523,1.523h-5.329L90.593-56.066A12.119,12.119,0,0,1,86.215-49.6a11.345,11.345,0,0,1-7.423,2.664H30.642A11.345,11.345,0,0,1,23.219-49.6a12.548,12.548,0,0,1-4.187-6.471L6.852-104.788H1.523A1.637,1.637,0,0,1,0-106.311a1.637,1.637,0,0,1,1.523-1.523H23.41l19.222-35.78a1.8,1.8,0,0,1,2.284-.571,1.531,1.531,0,0,1,.571,2.094L26.835-107.833H82.79Zm35.78,37.3H9.9l11.99,47.961a10.258,10.258,0,0,0,3.235,4.948,8.832,8.832,0,0,0,5.519,1.9H78.793a9.106,9.106,0,0,0,5.71-1.9,10.259,10.259,0,0,0,3.235-4.948Z" transform="translate(0 144.375)" fill="#e30613"/>
</svg>
