<svg xmlns="http://www.w3.org/2000/svg" width="17.505" height="14" viewBox="0 0 17.505 14">
  <path id="Path_624" data-name="Path 624" d="M16.707-2.051a4.04,4.04,0,0,0,0-1.148l.684-.41a.221.221,0,0,0,.109-.246,4.383,4.383,0,0,0-.93-1.559.183.183,0,0,0-.246-.027l-.684.383a3.3,3.3,0,0,0-1.012-.574v-.82a.25.25,0,0,0-.164-.191,4.3,4.3,0,0,0-1.8,0q-.164.055-.164.191v.82a3.3,3.3,0,0,0-1.012.574l-.711-.383a.186.186,0,0,0-.246.027,4.6,4.6,0,0,0-.9,1.559.221.221,0,0,0,.109.246l.684.41a4.04,4.04,0,0,0,0,1.148l-.684.41a.221.221,0,0,0-.109.246,4.6,4.6,0,0,0,.9,1.559.212.212,0,0,0,.246.055l.711-.41A3.3,3.3,0,0,0,12.5.383V1.2a.25.25,0,0,0,.164.191,4.3,4.3,0,0,0,1.8,0,.25.25,0,0,0,.164-.191V.383a3.3,3.3,0,0,0,1.012-.574l.684.41A.212.212,0,0,0,16.57.164a4.383,4.383,0,0,0,.93-1.559.221.221,0,0,0-.109-.246Zm-3.145.766a1.3,1.3,0,0,1-.93-.41,1.21,1.21,0,0,1-.383-.93,1.21,1.21,0,0,1,.383-.93,1.21,1.21,0,0,1,.93-.383,1.21,1.21,0,0,1,.93.383,1.3,1.3,0,0,1,.41.93,1.3,1.3,0,0,1-.41.93A1.3,1.3,0,0,1,13.563-1.285ZM11.621,1.2a.862.862,0,0,0,.137.465.965.965,0,0,1-.383.082H.875A.842.842,0,0,1,0,.875,4.735,4.735,0,0,1,1.422-2.516,4.735,4.735,0,0,1,4.813-3.937h2.6a4.483,4.483,0,0,1,1.313.191,1.083,1.083,0,0,0,.547.9l.219.109a.444.444,0,0,0,0,.219l-.246.137a.857.857,0,0,0-.219.164,3.023,3.023,0,0,0-1.586-.41H4.813a3.493,3.493,0,0,0-2.324.875A3.573,3.573,0,0,0,1.34.438H9.625l.027.027q.109.137.246.3a1.08,1.08,0,0,0,.793.328,1.213,1.213,0,0,0,.547-.137L11.43.848a1.788,1.788,0,0,1,.191.109ZM6.125-5.25A3.53,3.53,0,0,0,8.613-6.262,3.53,3.53,0,0,0,9.625-8.75a3.53,3.53,0,0,0-1.012-2.488A3.53,3.53,0,0,0,6.125-12.25a3.53,3.53,0,0,0-2.488,1.012A3.53,3.53,0,0,0,2.625-8.75,3.53,3.53,0,0,0,3.637-6.262,3.53,3.53,0,0,0,6.125-5.25Zm0-5.687a2.269,2.269,0,0,1,1.559.629A2.269,2.269,0,0,1,8.313-8.75a2.269,2.269,0,0,1-.629,1.559,2.269,2.269,0,0,1-1.559.629,2.269,2.269,0,0,1-1.559-.629A2.269,2.269,0,0,1,3.938-8.75a2.269,2.269,0,0,1,.629-1.559A2.269,2.269,0,0,1,6.125-10.937Z" transform="translate(0 12.25)"/>
</svg>
