<svg xmlns="http://www.w3.org/2000/svg" width="14" height="11.957" viewBox="0 0 14 11.957">
  <path id="Path_629" data-name="Path 629" d="M6.174.552,6.106.489,1.315-3.959A4.118,4.118,0,0,1,0-6.978v-.09a4.008,4.008,0,0,1,3.259-3.937,4,4,0,0,1,3.057.659A4.106,4.106,0,0,1,7-9.737a3.564,3.564,0,0,1,.369-.364,3.891,3.891,0,0,1,.314-.246,4.01,4.01,0,0,1,3.057-.662A4.011,4.011,0,0,1,14-7.068v.09a4.118,4.118,0,0,1-1.315,3.019L7.894.489,7.826.552A1.217,1.217,0,0,1,7,.878,1.2,1.2,0,0,1,6.174.552Zm.364-8.838a.143.143,0,0,1-.027-.03l-.487-.547,0,0a2.692,2.692,0,0,0-2.516-.853,2.7,2.7,0,0,0-2.193,2.65v.09a2.808,2.808,0,0,0,.9,2.056L7-.473l4.791-4.449a2.808,2.808,0,0,0,.9-2.056v-.09a2.7,2.7,0,0,0-2.19-2.65,2.7,2.7,0,0,0-2.516.853l0,0,0,0-.487.547c-.008.011-.019.019-.027.03A.654.654,0,0,1,7-8.091a.654.654,0,0,1-.462-.191Z" transform="translate(0 11.079)"/>
</svg>
