<svg xmlns="http://www.w3.org/2000/svg" width="120.669" height="50.711" viewBox="0 0 120.669 50.711">
  <g id="Group_1052" data-name="Group 1052" transform="translate(-44 -14.644)">
    <path id="Path_19" data-name="Path 19" d="M44.929,28.688h-21.7V51.06h21.7Zm-21.7-7.051H51.754V57.975H16.4V7.4h6.825Z" transform="translate(27.6 7.244)" fill="#fff"/>
    <path id="Path_20" data-name="Path 20" d="M66.491,29.814a6.548,6.548,0,0,0-.41-2.444,5.693,5.693,0,0,0-1.229-1.9,3.829,3.829,0,0,0-1.911-1.358,8.248,8.248,0,0,0-2.73-.407h-5.46a6.329,6.329,0,0,0-3.14.679,1.883,1.883,0,0,0-.546.407V18H48.2V39.184h2.867V38.1a2.986,2.986,0,0,0,.683.407,6.131,6.131,0,0,0,3,.679h5.46a6.565,6.565,0,0,0,4.778-1.63,6.038,6.038,0,0,0,1.638-4.481V29.814h-.136Zm-2.867,0v3.123a3.309,3.309,0,0,1-.956,2.716,5.269,5.269,0,0,1-3.276.815h-4.5a4,4,0,0,1-3-.951,3.371,3.371,0,0,1-.956-2.58V29.95a3.371,3.371,0,0,1,.956-2.58,4,4,0,0,1,3-.951h4.5c2.867-.136,4.232.951,4.232,3.395" transform="translate(39.307 11.002)" fill="#fff"/>
    <path id="Path_21" data-name="Path 21" d="M76.577,37.545a7.149,7.149,0,0,0,3.14-.679,4.013,4.013,0,0,0,1.775-1.9,3.526,3.526,0,0,0,.41-1.494l.136-.543H79.171l-.137.272a2.4,2.4,0,0,1-.683,1.086,3.216,3.216,0,0,1-2.184.679H69.479c-2.321,0-3.549-1.086-3.549-3.531v-.951H81.764V27.768a5.424,5.424,0,0,0-1.638-3.938,6.565,6.565,0,0,0-4.778-1.63h-5.87a7.039,7.039,0,0,0-3.413.815,4.818,4.818,0,0,0-2.184,2.173,6.747,6.747,0,0,0-.683,2.852v3.8a5.52,5.52,0,0,0,1.638,4.345,7.17,7.17,0,0,0,4.778,1.494C69.752,37.545,76.577,37.545,76.577,37.545ZM69.343,24.78h6.416a3.429,3.429,0,0,1,1.775.407,2.4,2.4,0,0,1,1.092,1.222,4.794,4.794,0,0,1,.41,1.494H66.067a2.727,2.727,0,0,1,.41-1.494,3.212,3.212,0,0,1,1.092-1.222,3.8,3.8,0,0,1,1.775-.407" transform="translate(44.521 12.499)" fill="#fff"/>
    <path id="Path_22" data-name="Path 22" d="M83.514,30.919H91.7a3.11,3.11,0,0,1,1.775.407,1.321,1.321,0,0,1,.546,1.222v.679a1.471,1.471,0,0,1-.546,1.222,3.7,3.7,0,0,1-2.048.543H78.6v2.58H91.568a6.975,6.975,0,0,0,3-.543,5.5,5.5,0,0,0,1.911-1.494,4.027,4.027,0,0,0,.683-2.037V32.82c0-1.9-.956-4.21-5.187-4.21h-8.19c-2.048,0-2.321-.951-2.321-1.494v-.543a1.1,1.1,0,0,1,.546-1.086,3.11,3.11,0,0,1,1.775-.407H96.755V22.5H84.06a6.976,6.976,0,0,0-3,.543,3.292,3.292,0,0,0-1.775,1.494,3.968,3.968,0,0,0-.546,2.173v.543c-.41,1.494.41,3.666,4.778,3.666" transform="translate(49.337 12.607)" fill="#fff"/>
    <path id="Path_23" data-name="Path 23" d="M109.217,33.644H106.35l-.137.272a2.512,2.512,0,0,1-.956,1.222,5.475,5.475,0,0,1-2.457.543h-2.73A2.968,2.968,0,0,1,98.16,35a3.443,3.443,0,0,1-.682-2.173v-7.2h10.647v-2.58H97.478V20.2h-3v2.852H92.7v2.58h1.775v6.79a5.984,5.984,0,0,0,1.5,4.345,5.477,5.477,0,0,0,3.959,1.494H102.8c2.457,0,4.232-.679,5.051-1.9a10.805,10.805,0,0,0,1.092-2.173Z" transform="translate(55.452 11.786)" fill="#fff"/>
    <path id="Path_24" data-name="Path 24" d="M53.124,39H51.759L47.8,46.876h1.092l.956-1.9H54.9l.956,1.9h1.229L53.124,39Zm1.229,5.024H50.394L52.3,40.086Z" transform="translate(38.992 18.48)" fill="#fff"/>
    <path id="Path_25" data-name="Path 25" d="M56.492,39H55.4v7.876h6.552V45.79h-5.46Z" transform="translate(41.752 18.48)" fill="#fff"/>
    <rect id="Rectangle_44" data-name="Rectangle 44" width="3.686" height="1.086" transform="translate(105.331 61.553)" fill="#fff"/>
    <path id="Path_26" data-name="Path 26" d="M69.2,42.395,66.065,39H64.7l3.959,4.21v3.666h1.092V43.21l4.1-4.21H72.481Z" transform="translate(44.779 18.48)" fill="#fff"/>
    <path id="Path_27" data-name="Path 27" d="M79.681,39.272A2.969,2.969,0,0,0,78.043,39H74.9a4.229,4.229,0,0,0-1.365.136,2.086,2.086,0,0,0-1.5,1.494,4.166,4.166,0,0,0-.137,1.358V44.3a3,3,0,0,0,.137,1.222c.137.272.273.679.546.815a1.242,1.242,0,0,0,.956.407,3.8,3.8,0,0,0,1.229.136h3.14a3.045,3.045,0,0,0,1.229-.136,1.56,1.56,0,0,0,.819-.407,4.224,4.224,0,0,0,.546-.815,4.166,4.166,0,0,0,.136-1.358V41.852a6,6,0,0,0-.273-1.765.862.862,0,0,0-.683-.815m-4.778.815h3.14a2.674,2.674,0,0,1,1.092.136q.41.2.41.407a2.635,2.635,0,0,1,.136,1.086V44.16a2.323,2.323,0,0,1-.136,1.086q-.2.407-.41.407c-.137.136-.546.136-1.092.136H74.9a2.034,2.034,0,0,1-.956-.136.963.963,0,0,1-.819-.815,1.714,1.714,0,0,1-.137-.815V41.716a2.548,2.548,0,0,1,.273-1.086,1.063,1.063,0,0,1,.546-.543H74.9" transform="translate(47.248 18.48)" fill="#fff"/>
    <path id="Path_28" data-name="Path 28" d="M87.344,44.432a1.714,1.714,0,0,1-.136.815c-.137.136-.273.407-.546.407-.137.136-.546.136-.956.136h-3.14a2.358,2.358,0,0,1-1.092-.136,1.883,1.883,0,0,1-.546-.407,1.464,1.464,0,0,1-.137-.815V39H79.7v5.16a5.041,5.041,0,0,0,.273,1.63,1.833,1.833,0,0,0,.956.815,5.115,5.115,0,0,0,1.638.272h3.14a4.233,4.233,0,0,0,1.5-.272,1.833,1.833,0,0,0,.956-.815,5.041,5.041,0,0,0,.273-1.63V39.136H87.344v5.3Z" transform="translate(49.995 18.48)" fill="#fff"/>
    <path id="Path_29" data-name="Path 29" d="M94.908,42.531a5.115,5.115,0,0,0-1.638-.272H89.994c-.546,0-.956,0-1.092-.136-.273,0-.41-.136-.41-.272-.137-.136-.137-.272-.137-.679a1.013,1.013,0,0,1,.137-.679l.41-.407a2.034,2.034,0,0,1,.956-.136H95.59V39H89.857a3.441,3.441,0,0,0-1.365.272,1.4,1.4,0,0,0-.819.679,3.392,3.392,0,0,0-.273,1.358,2.3,2.3,0,0,0,.137.951c.136.272.273.407.41.679s.41.272.819.407a3.045,3.045,0,0,0,1.229.136h3.686a2.674,2.674,0,0,1,1.092.136c.273.136.41.136.41.407a1.013,1.013,0,0,1,.137.679,1.23,1.23,0,0,1-.41.951,4.229,4.229,0,0,1-1.365.136H87.4v1.086h6.279a2.054,2.054,0,0,0,1.365-.272,1.4,1.4,0,0,0,.819-.679,3.392,3.392,0,0,0,.273-1.358v-.136a2.7,2.7,0,0,0-.273-1.222,2.448,2.448,0,0,0-.956-.679" transform="translate(52.842 18.48)" fill="#fff"/>
    <rect id="Rectangle_45" data-name="Rectangle 45" width="1.092" height="7.876" transform="translate(150.789 57.48)" fill="#fff"/>
    <path id="Path_30" data-name="Path 30" d="M97.7,46.876h.956V43.345h5.6v-.951h-5.6V40.086h5.733V39H97.7Z" transform="translate(55.726 18.48)" fill="#fff"/>
    <rect id="Rectangle_46" data-name="Rectangle 46" width="1.092" height="7.876" transform="translate(162.214 57.48)" fill="#fff"/>
  </g>
</svg>
